<mxfile host="app.diagrams.net" modified="2023-05-13T02:46:26.478Z" agent="Mozilla/5.0 (Windows NT 10.0; Win64; x64) AppleWebKit/537.36 (KHTML, like Gecko) Chrome/113.0.0.0 Safari/537.36 Edg/113.0.1774.35" etag="q59ijgcf5z_Bbp1nUBYJ" version="21.2.9" type="github">
  <diagram id="C5RBs43oDa-KdzZeNtuy" name="Page-1">
    <mxGraphModel dx="486" dy="251" grid="1" gridSize="10" guides="1" tooltips="1" connect="1" arrows="1" fold="1" page="1" pageScale="1" pageWidth="827" pageHeight="1169" math="0" shadow="0">
      <root>
        <mxCell id="WIyWlLk6GJQsqaUBKTNV-0" />
        <mxCell id="WIyWlLk6GJQsqaUBKTNV-1" parent="WIyWlLk6GJQsqaUBKTNV-0" />
        <mxCell id="ECsie7Ha2ymqft-x-U6o-0" value="原始数据" style="rounded=0;whiteSpace=wrap;html=1;" vertex="1" parent="WIyWlLk6GJQsqaUBKTNV-1">
          <mxGeometry x="270" y="280" width="90" height="30" as="geometry" />
        </mxCell>
        <mxCell id="ECsie7Ha2ymqft-x-U6o-1" value="HDFS Split" style="rounded=0;whiteSpace=wrap;html=1;" vertex="1" parent="WIyWlLk6GJQsqaUBKTNV-1">
          <mxGeometry x="120" y="340" width="70" height="30" as="geometry" />
        </mxCell>
        <mxCell id="ECsie7Ha2ymqft-x-U6o-2" value="HDFS Split" style="rounded=0;whiteSpace=wrap;html=1;" vertex="1" parent="WIyWlLk6GJQsqaUBKTNV-1">
          <mxGeometry x="200" y="340" width="70" height="30" as="geometry" />
        </mxCell>
        <mxCell id="ECsie7Ha2ymqft-x-U6o-3" value="HDFS Split" style="rounded=0;whiteSpace=wrap;html=1;" vertex="1" parent="WIyWlLk6GJQsqaUBKTNV-1">
          <mxGeometry x="280" y="340" width="70" height="30" as="geometry" />
        </mxCell>
        <mxCell id="ECsie7Ha2ymqft-x-U6o-4" value="HDFS Split" style="rounded=0;whiteSpace=wrap;html=1;" vertex="1" parent="WIyWlLk6GJQsqaUBKTNV-1">
          <mxGeometry x="360" y="340" width="70" height="30" as="geometry" />
        </mxCell>
        <mxCell id="ECsie7Ha2ymqft-x-U6o-5" value="HDFS Split" style="rounded=0;whiteSpace=wrap;html=1;" vertex="1" parent="WIyWlLk6GJQsqaUBKTNV-1">
          <mxGeometry x="440" y="340" width="70" height="30" as="geometry" />
        </mxCell>
        <mxCell id="ECsie7Ha2ymqft-x-U6o-7" value="&lt;font style=&quot;font-size: 14px;&quot;&gt;...&lt;/font&gt;" style="text;html=1;align=center;verticalAlign=middle;resizable=0;points=[];autosize=1;strokeColor=none;fillColor=none;" vertex="1" parent="WIyWlLk6GJQsqaUBKTNV-1">
          <mxGeometry x="510" y="340" width="40" height="30" as="geometry" />
        </mxCell>
        <mxCell id="ECsie7Ha2ymqft-x-U6o-8" value="" style="endArrow=none;html=1;rounded=0;exitX=0.5;exitY=0;exitDx=0;exitDy=0;" edge="1" parent="WIyWlLk6GJQsqaUBKTNV-1" source="ECsie7Ha2ymqft-x-U6o-1">
          <mxGeometry width="50" height="50" relative="1" as="geometry">
            <mxPoint x="260" y="360" as="sourcePoint" />
            <mxPoint x="310" y="310" as="targetPoint" />
          </mxGeometry>
        </mxCell>
        <mxCell id="ECsie7Ha2ymqft-x-U6o-9" value="" style="endArrow=none;html=1;rounded=0;exitX=0.5;exitY=0;exitDx=0;exitDy=0;" edge="1" parent="WIyWlLk6GJQsqaUBKTNV-1" source="ECsie7Ha2ymqft-x-U6o-2">
          <mxGeometry width="50" height="50" relative="1" as="geometry">
            <mxPoint x="157.5" y="340" as="sourcePoint" />
            <mxPoint x="312.5" y="310" as="targetPoint" />
          </mxGeometry>
        </mxCell>
        <mxCell id="ECsie7Ha2ymqft-x-U6o-10" value="" style="endArrow=none;html=1;rounded=0;exitX=0.5;exitY=0;exitDx=0;exitDy=0;" edge="1" parent="WIyWlLk6GJQsqaUBKTNV-1" source="ECsie7Ha2ymqft-x-U6o-3">
          <mxGeometry width="50" height="50" relative="1" as="geometry">
            <mxPoint x="180" y="370" as="sourcePoint" />
            <mxPoint x="310" y="310" as="targetPoint" />
          </mxGeometry>
        </mxCell>
        <mxCell id="ECsie7Ha2ymqft-x-U6o-11" value="" style="endArrow=none;html=1;rounded=0;exitX=0.5;exitY=0;exitDx=0;exitDy=0;" edge="1" parent="WIyWlLk6GJQsqaUBKTNV-1" source="ECsie7Ha2ymqft-x-U6o-4">
          <mxGeometry width="50" height="50" relative="1" as="geometry">
            <mxPoint x="200" y="380" as="sourcePoint" />
            <mxPoint x="310" y="310" as="targetPoint" />
          </mxGeometry>
        </mxCell>
        <mxCell id="ECsie7Ha2ymqft-x-U6o-12" value="" style="endArrow=none;html=1;rounded=0;exitX=0.5;exitY=0;exitDx=0;exitDy=0;" edge="1" parent="WIyWlLk6GJQsqaUBKTNV-1" source="ECsie7Ha2ymqft-x-U6o-5">
          <mxGeometry width="50" height="50" relative="1" as="geometry">
            <mxPoint x="195" y="380" as="sourcePoint" />
            <mxPoint x="310" y="310" as="targetPoint" />
          </mxGeometry>
        </mxCell>
      </root>
    </mxGraphModel>
  </diagram>
</mxfile>
